<svg width="66" height="65" viewBox="0 0 66 65" fill="none" xmlns="http://www.w3.org/2000/svg">
<path d="M33 0.704468C15.0437 0.704468 0.5 15.2563 0.5 33.2045C0.5 47.5668 9.81125 59.7461 22.7219 64.0388C24.3469 64.3449 24.9427 63.3401 24.9427 62.4761C24.9427 61.7043 24.9156 59.6595 24.9021 56.9511C15.8617 58.912 13.955 52.5907 13.955 52.5907C12.4762 48.8397 10.3394 47.8376 10.3394 47.8376C7.39542 45.8226 10.5669 45.8632 10.5669 45.8632C13.8304 46.0907 15.5448 49.2107 15.5448 49.2107C18.4427 54.1805 23.1525 52.7451 25.0104 51.9136C25.3029 49.812 26.1398 48.3793 27.0688 47.5668C19.851 46.7543 12.265 43.9593 12.265 31.5063C12.265 27.9584 13.5244 25.0605 15.6098 22.7855C15.2442 21.9649 14.1473 18.6607 15.8942 14.1838C15.8942 14.1838 18.616 13.3118 24.8317 17.5151C27.4317 16.792 30.1942 16.4345 32.9567 16.4182C35.7192 16.4345 38.4817 16.792 41.0817 17.5151C47.2567 13.3118 49.9785 14.1838 49.9785 14.1838C51.7254 18.6607 50.6285 21.9649 50.3035 22.7855C52.3754 25.0605 53.6348 27.9584 53.6348 31.5063C53.6348 43.9918 46.0379 46.7407 38.8067 47.5397C39.9442 48.5147 41.0004 50.508 41.0004 53.5522C41.0004 57.9018 40.9598 61.3955 40.9598 62.4518C40.9598 63.3049 41.5285 64.3205 43.1942 63.9955C56.1969 59.7326 65.5 47.5451 65.5 33.2045C65.5 15.2563 50.9481 0.704468 33 0.704468Z" fill="white"/>
</svg>
