<svg width="133" height="125" viewBox="0 0 133 125" fill="none" xmlns="http://www.w3.org/2000/svg">
<path d="M52.7533 0.00551864C46.7048 1.35208 40.717 3.22293 35.1045 6.0485C35.2314 11.0043 35.5515 15.7504 36.2027 20.5737C34.0228 21.97 31.7326 23.1675 29.7017 24.8011C27.6322 26.3905 25.5185 27.9136 23.6477 29.7734C19.8572 27.2626 15.923 24.9758 11.8652 22.9247C7.46681 27.6542 3.35537 32.7591 0 38.4764C2.52757 42.5658 5.16551 46.3958 8.01316 50.0326H8.09043V85.1095C8.15665 85.1095 8.21736 85.1095 8.28358 85.1261L29.7845 87.2011C30.3298 87.2546 30.8386 87.4996 31.2205 87.8926C31.6024 88.2856 31.8327 88.8012 31.8705 89.3479L32.5328 98.8401L51.2909 100.176L52.5823 91.4174C52.6631 90.8679 52.939 90.3659 53.3596 90.0032C53.7801 89.6404 54.3171 89.4411 54.8725 89.4417H77.5599C78.7078 89.4417 79.6846 90.2806 79.8502 91.4174L81.1416 100.176L99.8997 98.8401L100.562 89.3479C100.6 88.8012 100.83 88.2856 101.212 87.8926C101.594 87.4996 102.103 87.2546 102.648 87.2011L124.143 85.1261C124.21 85.1261 124.27 85.1095 124.337 85.1095V82.3115H124.348V50.0381H124.425C127.272 46.4013 129.91 42.5713 132.438 38.4819C129.083 32.7646 124.966 27.6598 120.567 22.9247C116.489 24.9777 112.526 27.301 108.785 29.7734C106.914 27.9136 104.806 26.3905 102.736 24.8011C100.7 23.1675 98.4096 21.97 96.2352 20.5737C96.8612 15.7552 97.2278 10.9064 97.3335 6.0485C91.7209 3.22293 85.7387 1.35208 79.6846 0.00551864C77.2603 4.13061 75.0731 8.39061 73.1339 12.7648C70.8592 12.4068 68.5603 12.2241 66.2576 12.2184H66.1693C63.868 12.246 61.5777 12.384 59.293 12.7648C57.3541 8.38947 55.1651 4.12935 52.7368 0.00551864L52.7423 0L52.7533 0.00551864ZM35.7392 51.3571C37.4637 51.3215 39.178 51.6304 40.7816 52.2658C42.3852 52.9011 43.8459 53.8501 45.0781 55.0572C46.3103 56.2642 47.2892 57.705 47.9575 59.2952C48.6258 60.8853 48.9701 62.5929 48.9701 64.3178C48.9701 66.0427 48.6258 67.7502 47.9575 69.3404C47.2892 70.9306 46.3103 72.3714 45.0781 73.5784C43.8459 74.7854 42.3852 75.7344 40.7816 76.3698C39.178 77.0051 37.4637 77.3141 35.7392 77.2785C32.3481 77.2085 29.1195 75.8123 26.746 73.3893C24.3725 70.9663 23.0432 67.7096 23.0432 64.3178C23.0432 60.926 24.3725 57.6693 26.746 55.2463C29.1195 52.8233 32.3481 51.4271 35.7392 51.3571ZM96.7098 51.3571C100.147 51.3571 103.444 52.7226 105.874 55.1532C108.305 57.5838 109.671 60.8804 109.671 64.3178C109.671 67.7552 108.305 71.0518 105.874 73.4824C103.444 75.913 100.147 77.2785 96.7098 77.2785C93.2725 77.2785 89.9759 75.913 87.5452 73.4824C85.1146 71.0518 83.7492 67.7552 83.7492 64.3178C83.7492 60.8804 85.1146 57.5838 87.5452 55.1532C89.9759 52.7226 93.2725 51.3571 96.7098 51.3571ZM36.9809 56.4895C34.699 56.4895 32.5107 57.396 30.8972 59.0095C29.2837 60.623 28.3772 62.8113 28.3772 65.0932C28.3772 67.375 29.2837 69.5634 30.8972 71.1769C32.5107 72.7904 34.699 73.6968 36.9809 73.6968C39.2627 73.6968 41.4511 72.7904 43.0646 71.1769C44.6781 69.5634 45.5845 67.375 45.5845 65.0932C45.5845 62.8113 44.6781 60.623 43.0646 59.0095C41.4511 57.396 39.2627 56.4895 36.9809 56.4895ZM95.4626 56.4895C94.3335 56.4895 93.2154 56.7119 92.1722 57.144C91.1291 57.5761 90.1812 58.2094 89.3828 59.0078C88.5844 59.8062 87.9511 60.7541 87.519 61.7973C87.0869 62.8405 86.8645 63.9585 86.8645 65.0876C86.8645 66.2168 87.0869 67.3348 87.519 68.378C87.9511 69.4212 88.5844 70.369 89.3828 71.1675C90.1812 71.9659 91.1291 72.5992 92.1722 73.0313C93.2154 73.4634 94.3335 73.6858 95.4626 73.6858C97.743 73.6858 99.93 72.7799 101.542 71.1675C103.155 69.555 104.061 67.368 104.061 65.0876C104.061 62.8073 103.155 60.6203 101.542 59.0078C99.93 57.3954 97.743 56.4895 95.4626 56.4895ZM66.2245 58.9895C68.5258 58.9895 70.4022 60.6892 70.4022 62.7808V74.7123C70.4022 76.8039 68.5313 78.5036 66.2245 78.5036C63.9177 78.5036 62.0524 76.8039 62.0524 74.7123V62.7808C62.0524 60.6892 63.9232 58.9895 66.2245 58.9895ZM8.05731 89.7508L8.09043 94.5575C8.09043 114.982 33.9952 124.795 66.1803 124.91H66.2576C98.4427 124.8 124.342 114.982 124.342 94.5575C124.342 94.094 124.37 91.8258 124.381 89.7508L105.054 91.6161L104.386 101.158C104.348 101.715 104.11 102.24 103.715 102.635C103.321 103.031 102.797 103.27 102.24 103.31L79.1659 104.944C78.6108 104.943 78.0744 104.744 77.6541 104.381C77.2338 104.018 76.9575 103.517 76.8756 102.968L75.5622 94.0609H56.8758L55.5624 102.968C55.4763 103.545 55.1755 104.069 54.7203 104.434C54.265 104.799 53.6887 104.979 53.1065 104.938L30.1984 103.305C29.6421 103.265 29.1189 103.026 28.7246 102.632C28.3303 102.237 28.0913 101.714 28.0516 101.158L27.3893 91.6161L8.0518 89.7563L8.05731 89.7508Z" fill="white"/>
</svg>
