<svg width="66" height="59" viewBox="0 0 66 59" fill="none" xmlns="http://www.w3.org/2000/svg">
<path d="M33 23.9938C32.2392 23.9938 31.4859 24.1436 30.7831 24.4348C30.0802 24.7259 29.4416 25.1526 28.9036 25.6906C28.3657 26.2285 27.939 26.8671 27.6478 27.57C27.3567 28.2728 27.2069 29.0262 27.2069 29.7869C27.2069 30.5477 27.3567 31.301 27.6478 32.0039C27.939 32.7067 28.3657 33.3453 28.9036 33.8833C29.4416 34.4212 30.0802 34.8479 30.7831 35.1391C31.4859 35.4302 32.2392 35.58 33 35.58C33.7608 35.58 34.5141 35.4302 35.2169 35.1391C35.9198 34.8479 36.5584 34.4212 37.0964 33.8833C37.6343 33.3453 38.061 32.7067 38.3521 32.0039C38.6433 31.301 38.7931 30.5477 38.7931 29.7869C38.7931 29.0262 38.6433 28.2728 38.3521 27.57C38.061 26.8671 37.6343 26.2285 37.0964 25.6906C36.5584 25.1526 35.9198 24.7259 35.2169 24.4348C34.5141 24.1436 33.7608 23.9938 33 23.9938ZM16.7717 41.3109L15.4933 40.9859C5.96542 38.5782 0.5 34.4913 0.5 29.7761C0.5 25.0609 5.96542 20.974 15.4933 18.5663L16.7717 18.244L17.1319 19.5115C18.0971 22.8366 19.3316 26.0774 20.8233 29.2019L21.0969 29.7788L20.8233 30.3557C19.3292 33.4791 18.0945 36.7202 17.1319 40.0461L16.7717 41.3109ZM14.9002 21.5265C7.65812 23.5605 3.21375 26.6723 3.21375 29.7761C3.21375 32.8771 7.65812 35.989 14.9002 38.0257C15.7859 35.2088 16.8553 32.4531 18.1015 29.7761C16.8538 27.0997 15.7844 24.3439 14.9002 21.5265ZM49.2283 41.3109L48.8681 40.0407C47.9039 36.7158 46.6684 33.4757 45.174 30.353L44.9004 29.7761L45.174 29.1992C46.6678 26.0753 47.9033 22.8344 48.8681 19.5088L49.2283 18.2413L50.5094 18.5636C60.0346 20.9713 65.5 25.0582 65.5 29.7761C65.5 34.494 60.0346 38.5782 50.5094 40.9859L49.2283 41.3109ZM47.8985 29.7761C49.1985 32.59 50.2738 35.3553 51.0998 38.0257C58.3446 35.989 62.7862 32.8771 62.7862 29.7761C62.7862 26.6723 58.3419 23.5632 51.0998 21.5265C50.2153 24.3438 49.1459 27.0996 47.8985 29.7761ZM14.8812 21.513L14.521 20.2482C11.8425 10.8069 12.655 4.0415 16.75 1.67984C20.7665 -0.638498 27.215 2.09963 33.9723 9.03567L34.8931 9.98088L33.9723 10.9261C31.5712 13.4221 29.3775 16.1095 27.4127 18.9617L27.0471 19.4844L26.4106 19.5386C22.9545 19.811 19.5263 20.3635 16.1596 21.1907L14.8812 21.513ZM20.0162 3.55671C19.2904 3.55671 18.6485 3.71379 18.1069 4.02525C15.4148 5.57713 14.9381 10.9721 16.7933 18.2521C19.6794 17.6101 22.6043 17.1568 25.5494 16.8953C27.2486 14.4791 29.1052 12.1775 31.1069 10.0053C26.8819 5.89129 22.8817 3.55671 20.0162 3.55671ZM45.9865 58.7038C45.9837 58.7038 45.9837 58.7038 45.9865 58.7038C42.1271 58.7038 37.1708 55.7978 32.0277 50.5165L31.1069 49.5713L32.0277 48.6261C34.4281 46.1293 36.621 43.4409 38.5846 40.5878L38.9502 40.065L39.584 40.0109C43.0418 39.7399 46.4719 39.1883 49.8404 38.3615L51.1187 38.0392L51.4817 39.3067C54.1548 48.7425 53.345 55.5107 49.25 57.8696C48.2553 58.432 47.129 58.7199 45.9865 58.7038ZM34.8931 49.5469C39.1181 53.6609 43.1183 55.9955 45.9838 55.9955C46.7069 55.9955 47.3542 55.8384 47.8931 55.5269C50.5852 53.975 51.0646 48.5773 49.2067 41.2973C46.3198 41.9403 43.394 42.3935 40.4479 42.6542C38.7507 45.072 36.895 47.3747 34.8931 49.5469ZM51.1187 21.513L49.8404 21.1907C46.4724 20.3612 43.0421 19.8086 39.584 19.5386L38.9502 19.4844L38.5846 18.9617C36.622 16.1086 34.4291 13.4211 32.0277 10.9261L31.1069 9.98088L32.0277 9.03567C38.7823 2.10234 45.2281 -0.63579 49.25 1.67984C53.345 4.0415 54.1575 10.8069 51.4817 20.2455L51.1187 21.513ZM40.4479 16.8953C43.5408 17.1769 46.4794 17.6346 49.2067 18.2521C51.0646 10.9721 50.5852 5.57713 47.8931 4.02525C45.2173 2.47879 40.1879 4.84859 34.8931 10.0053C36.8939 12.1776 38.7495 14.4792 40.4479 16.8953ZM20.0162 58.7038C18.8728 58.7204 17.7455 58.4325 16.75 57.8696C12.655 55.5107 11.8425 48.7453 14.521 39.3067L14.8785 38.0392L16.1569 38.3615C19.285 39.1496 22.7354 39.7048 26.4079 40.0109L27.0444 40.065L27.4073 40.5878C29.3723 43.4406 31.5661 46.1289 33.9669 48.6261L34.8877 49.5713L33.9669 50.5165C28.8265 55.7978 23.8702 58.7038 20.0162 58.7038ZM16.7933 41.2973C14.9354 48.5773 15.4148 53.975 18.1069 55.5269C20.78 57.0517 25.8067 54.7009 31.1069 49.5469C29.106 47.3731 27.2495 45.0706 25.5494 42.6542C22.6042 42.3938 19.6792 41.9405 16.7933 41.2973ZM33 42.9982C30.771 42.9982 28.4798 42.9007 26.1858 42.7111L25.5494 42.6569L25.1838 42.1342C23.8862 40.2698 22.6664 38.3525 21.5275 36.3871C20.392 34.4202 19.3384 32.4071 18.3696 30.353L18.1015 29.7761L18.3696 29.1992C19.3383 27.145 20.3918 25.1319 21.5275 23.165C22.6487 21.2259 23.881 19.2921 25.1838 17.418L25.5494 16.8953L26.1858 16.8411C30.7214 16.4565 35.2813 16.4565 39.8169 16.8411L40.4506 16.8953L40.8135 17.418C43.4113 21.1475 45.6916 25.0884 47.6304 29.1992L47.904 29.7761L47.6304 30.353C45.6962 34.4662 43.4157 38.4075 40.8135 42.1342L40.4506 42.6569L39.8169 42.7111C37.5229 42.9007 35.229 42.9982 33 42.9982ZM27.0498 40.0623C31.0581 40.363 34.9419 40.363 38.9529 40.0623C41.1922 36.7886 43.1804 33.3501 44.9004 29.7761C43.1835 26.2 41.1942 22.7611 38.9502 19.4898C34.9891 19.1892 31.0109 19.1892 27.0498 19.4898C24.8048 22.7605 22.8155 26.1994 21.0996 29.7761C22.8214 33.3496 24.8105 36.7881 27.0498 40.0623Z" fill="white"/>
</svg>
