<svg width="66" height="29" viewBox="0 0 66 29" fill="none" xmlns="http://www.w3.org/2000/svg">
<path d="M44.4129 0.0950012L44.2098 1.15396C43.8956 3.16083 44.0094 3.735 44.8706 4.47979L45.7021 5.16771L44.8408 9.00813C44.3262 11.2994 43.6952 13.2196 43.2944 13.8506C42.9504 14.395 42.5496 15.1967 42.4629 15.6273C42.3194 16.1419 41.8319 16.6592 41.0871 17.1169C40.429 17.4906 39.1371 18.4927 38.2217 19.2971C37.4904 19.9552 36.9867 20.3588 36.7131 20.5321L35.8194 21.239C35.5895 21.5798 35.4167 21.9557 35.3075 22.3521C35.2452 22.6419 35.2804 22.8342 35.3725 22.975C35.4619 23.1104 35.6162 23.2052 35.8275 23.2648C36.0776 23.3234 36.335 23.3444 36.5912 23.3271C37.171 23.2875 37.7448 23.1858 38.3029 23.0238C38.4925 22.9723 38.6415 22.9235 38.7715 22.8802C38.9719 22.6338 39.435 22.1679 40.2556 21.3581C42.4331 19.2104 43.2646 18.035 42.406 18.3519C42.0892 18.4656 42.2327 18.1785 42.7771 17.6044C43.9254 16.4858 44.5835 14.7958 45.9594 9.49563C47.0481 5.31125 47.0481 5.25167 47.8498 5.25167C48.2262 5.25167 49.2906 5.31667 49.2906 5.31667V0.0950012H46.8477H44.4129ZM54.8102 8.66688C54.6369 8.66688 54.3498 8.92688 54.1792 9.21396C53.865 9.72854 54.236 10.0427 58.9648 12.9948C61.7733 14.7742 64.0375 16.2908 63.9806 16.4073C63.9237 16.4913 61.6298 17.9835 58.8808 19.7033C53.8921 22.7963 53.865 22.826 54.3227 23.4571C54.8969 24.2019 54.3227 24.4592 60.7983 20.4183L65.5 17.4094V15.1452L60.254 11.906C57.4183 10.1294 54.9537 8.69667 54.8102 8.66688ZM11.2467 8.98375C11.1031 8.98375 8.63854 10.4463 5.80292 12.1931L0.5 15.4323V17.6965L5.77312 20.9925C8.69812 22.7963 11.1627 24.2885 11.2765 24.2885C11.3902 24.2885 11.6204 24.0285 11.8506 23.7144C12.1946 23.17 11.9048 22.9398 7.06229 19.874C2.45 16.9788 1.9625 16.5779 2.42292 16.2638C2.71 16.0633 4.8875 14.7146 7.23833 13.2548C12.5981 9.95875 12.311 10.1863 11.8804 9.49834C11.7098 9.21396 11.42 8.95667 11.2494 8.98375H11.2467ZM34.7658 9.04604C33.975 9.04063 32.2742 10.2458 27.1825 14.4031C26.9631 14.9258 26.9442 15.286 27.0444 15.519C27.1094 15.6788 27.2285 15.7898 27.3938 15.871C27.5563 15.9523 27.7675 16.001 28.0004 16.02C28.4635 16.0606 29.0106 15.9875 29.4521 15.9008L29.75 15.8331C29.852 15.6964 29.9859 15.5867 30.14 15.5135C30.4542 15.3402 31.7731 14.1377 33.0921 12.8485C35.4131 10.4977 35.9575 9.43604 35.0123 9.09208C34.9347 9.06123 34.8493 9.0456 34.7658 9.04604ZM40.7133 10.6792C40.0173 10.6981 38.7633 11.5052 36.6156 13.2196C35.5377 14.0944 34.8552 14.5656 34.4896 14.6631L33.0704 15.7844C32.5369 16.7594 32.4583 17.3633 32.5992 17.6965C32.6344 17.7786 32.6856 17.853 32.7497 17.9153C32.8139 17.9776 32.8897 18.0266 32.9729 18.0594C33.1798 18.1411 33.4005 18.1824 33.6229 18.1813C34.1545 18.1756 34.6829 18.0981 35.1938 17.951C35.46 17.8796 35.723 17.7965 35.9819 17.7019L36.0604 17.6694L36.204 17.5935C36.4748 17.2442 37.0977 16.586 37.8777 15.8277C40.3423 13.4498 41.6017 11.7598 41.3444 11.1288C41.2279 10.8227 41.0275 10.6683 40.7133 10.6792ZM34.1483 13.6042C33.9479 13.6258 33.4983 13.9725 32.6885 14.6821C31.5185 15.7167 30.2429 16.3125 29.8015 16.0471C29.6989 16.0703 29.5959 16.0919 29.4927 16.1121C29.0431 16.2015 28.4825 16.2746 27.9815 16.234C27.7454 16.2197 27.514 16.1618 27.299 16.0633C27.0961 15.9706 26.9343 15.8068 26.844 15.6029C26.7437 15.3592 26.7438 15.0558 26.8575 14.6685L25.0971 16.1148L21.1131 19.4108V24.7544L34.1673 14.4708C34.1648 14.3582 34.1794 14.2459 34.2106 14.1377C34.3108 13.7748 34.3054 13.5906 34.1483 13.6069V13.6042ZM39.7654 15.3348C39.5677 15.3348 39.2373 15.6138 38.7092 16.1744C37.9915 16.9408 36.8621 17.6829 36.2635 17.8346L36.1715 17.8833C36.0732 17.9239 35.9738 17.9618 35.8735 17.9971C35.711 18.0513 35.4998 18.1163 35.256 18.1813C34.7685 18.314 34.1619 18.4358 33.6202 18.4223C33.3648 18.422 33.1119 18.3723 32.8754 18.276C32.6525 18.1842 32.4738 18.0094 32.3771 17.7885C32.22 17.4121 32.2823 16.884 32.6263 16.1338L21.1104 25.204V28.4675H26.1696L36.9 20.0392C37.179 19.7304 37.5987 19.3079 38.1648 18.7798C39.6815 17.3742 40.0254 16.8894 40.0254 16.1717C40.0254 15.6138 39.9631 15.3321 39.7654 15.3321V15.3348ZM42.3194 20.616L41.4012 21.5315C40.8867 22.019 39.9685 22.6202 39.3402 22.8775L39.2156 22.9317L39.2075 22.9452L39.1804 22.9723C39.156 22.9913 39.1452 22.994 39.1262 23.0021C38.8754 23.097 38.6206 23.1811 38.3625 23.254C37.7886 23.421 37.1984 23.5254 36.6021 23.5654C36.3201 23.5835 36.0371 23.5588 35.7625 23.4923C35.5242 23.4398 35.3138 23.3009 35.1721 23.1023C35.0421 22.9019 35.0042 22.6338 35.0773 22.3033C35.1355 22.0681 35.2218 21.8408 35.3346 21.6263L26.676 28.4675H38.1919L39.5677 26.8913C41.4581 24.6867 42.3194 23.1104 42.3194 21.7617V20.616Z" fill="white"/>
</svg>
