<svg width="66" height="66" viewBox="0 0 66 66" fill="none" xmlns="http://www.w3.org/2000/svg">
<path d="M0.5 32.9675V65.4675H65.5V0.467499H0.5V32.9675ZM52.8819 30.3783C54.534 30.79 55.7906 31.524 56.9471 32.721C57.5456 33.3602 58.434 34.5248 58.5044 34.8065C58.526 34.8877 55.6985 36.7835 53.9869 37.8479C53.9246 37.8885 53.6754 37.6204 53.3992 37.2087C52.5596 35.99 51.6848 35.4646 50.3442 35.3725C48.3725 35.2371 47.105 36.269 47.1158 37.9915C47.0979 38.415 47.1932 38.8358 47.3921 39.2102C47.8254 40.1067 48.6325 40.6456 51.1567 41.7371C55.8123 43.7412 57.8029 45.0602 59.0406 46.9371C60.4219 49.0306 60.7333 52.3754 59.7935 54.8617C58.7644 57.5646 56.205 59.4008 52.6029 60.0075C51.4898 60.2052 48.8492 60.1754 47.6521 59.9587C45.0412 59.4929 42.5658 58.2037 41.0383 56.511C40.4398 55.8529 39.2725 54.1277 39.3456 54.0058C39.5334 53.8623 39.7326 53.7346 39.9415 53.624C40.234 53.4587 41.3254 52.8277 42.3573 52.2292L44.226 51.1458L44.6188 51.7254C45.1658 52.5596 46.3602 53.7052 47.0833 54.0871C49.1579 55.1812 52.0044 55.0269 53.4073 53.7675C53.6894 53.5299 53.9127 53.2302 54.0598 52.8919C54.2068 52.5536 54.2737 52.1859 54.255 51.8175C54.255 51.0646 54.1602 50.7342 53.7675 50.1654C53.2637 49.445 52.2319 48.8383 49.3015 47.5654C45.9485 46.1219 44.505 45.2254 43.1833 43.8008C42.3584 42.8607 41.7492 41.7514 41.3985 40.5508C41.1521 39.6327 41.0898 37.3306 41.2848 36.4044C41.9754 33.1625 44.421 30.9065 47.95 30.2348C49.0956 30.0181 51.7579 30.0994 52.8819 30.3783ZM37.6231 33.0921L37.6448 35.7544H29.1812V59.7935H23.1958V35.7544H14.7404V33.1435C14.7404 31.6973 14.7702 30.4894 14.8108 30.4623C14.8433 30.419 19.9919 30.3973 26.2319 30.4081L37.5933 30.4406L37.6231 33.0921Z" fill="white"/>
</svg>
