<svg width="66" height="66" viewBox="0 0 66 66" fill="none" xmlns="http://www.w3.org/2000/svg">
<path d="M63.1979 7.30581L49.819 0.868193C49.0629 0.50408 48.2123 0.384073 47.3849 0.52479C46.5576 0.665508 45.7945 1.05999 45.2013 1.6536L19.5809 25.0262L8.42269 16.5546C7.91928 16.1728 7.29811 15.9792 6.66691 16.0074C6.0357 16.0356 5.43427 16.2838 4.96691 16.709L1.38654 19.9644C1.10754 20.218 0.884565 20.5271 0.731903 20.8719C0.579242 21.2167 0.500256 21.5895 0.500001 21.9666C0.499746 22.3436 0.578228 22.7166 0.730423 23.0616C0.882618 23.4065 1.10517 23.7159 1.38384 23.9699L11.0606 32.799L1.38384 41.628C1.10517 41.882 0.882618 42.1914 0.730423 42.5364C0.578228 42.8814 0.499746 43.2543 0.500001 43.6314C0.500256 44.0085 0.579242 44.3813 0.731903 44.7261C0.884565 45.0709 1.10754 45.38 1.38654 45.6336L4.96962 48.8863C5.43698 49.3114 6.03841 49.5597 6.66962 49.5879C7.30082 49.6161 7.92199 49.4225 8.4254 49.0406L19.5836 40.5691L45.204 63.9417C45.7966 64.5354 46.5592 64.93 47.3862 65.0707C48.2131 65.2115 49.0634 65.0914 49.819 64.7271L63.2034 58.2895C63.892 57.9571 64.4728 57.4372 64.8791 56.7894C65.2853 56.1417 65.5006 55.3924 65.5 54.6278V10.9674C65.5001 10.2022 65.284 9.45259 64.8768 8.80479C64.4695 8.15699 63.8876 7.63739 63.1979 7.30581ZM49.2611 47.5538L29.8209 32.799L49.2611 18.0442V47.5538Z" fill="white"/>
</svg>
