<svg width="20" height="27" viewBox="0 0 20 27" fill="none" xmlns="http://www.w3.org/2000/svg">
<mask id="path-1-inside-1_125_55" fill="white">
<path d="M20.0001 26.4844V24.1406C20.0001 22.8974 19.4733 21.7051 18.5356 20.8261C17.5979 19.947 16.3261 19.4531 15.0001 19.4531H5.00006C3.67398 19.4531 2.40221 19.947 1.46453 20.8261C0.526845 21.7051 6.10352e-05 22.8974 6.10352e-05 24.1406V26.4844"/>
<path d="M10.0001 14.7656C12.7615 14.7656 15.0001 12.667 15.0001 10.0781C15.0001 7.48929 12.7615 5.39062 10.0001 5.39062C7.23864 5.39062 5.00006 7.48929 5.00006 10.0781C5.00006 12.667 7.23864 14.7656 10.0001 14.7656Z"/>
<path d="M18.0001 2.10938L11.2001 0L1.00006 1.875L9.31117 3.75L18.0001 2.10938Z"/>
<path d="M17.0001 5.15625C17.0001 4.89737 16.7762 4.6875 16.5001 4.6875C16.2239 4.6875 16.0001 4.89737 16.0001 5.15625C16.0001 5.41513 16.2239 5.625 16.5001 5.625C16.7762 5.625 17.0001 5.41513 17.0001 5.15625Z"/>
</mask>
<path d="M17.0001 5.15625C17.0001 4.89737 16.7762 4.6875 16.5001 4.6875C16.2239 4.6875 16.0001 4.89737 16.0001 5.15625C16.0001 5.41513 16.2239 5.625 16.5001 5.625C16.7762 5.625 17.0001 5.41513 17.0001 5.15625Z" fill="white"/>
<path d="M6.00006 6.5625H5.00006C5.00006 6.88682 5.15735 7.191 5.42199 7.37849C5.68663 7.56597 6.02576 7.61346 6.33172 7.5059L6.00006 6.5625ZM10.0001 5.15625L10.2283 4.18263C10.0426 4.13911 9.84832 4.1496 9.6684 4.21285L10.0001 5.15625ZM14.0001 6.09375L13.7719 7.06737C14.0692 7.13704 14.382 7.06708 14.6213 6.87739C14.8606 6.68771 15.0001 6.3991 15.0001 6.09375H14.0001ZM15.5001 2.8125V4.6875H17.5001V2.8125H15.5001ZM5.00006 2.8125V6.5625H7.00006V2.8125H5.00006ZM6.33172 7.5059L10.3317 6.09965L9.6684 4.21285L5.6684 5.6191L6.33172 7.5059ZM9.77187 6.12987L13.7719 7.06737L14.2283 5.12013L10.2283 4.18263L9.77187 6.12987ZM15.0001 6.09375V2.8125H13.0001V6.09375H15.0001ZM18.0001 26.4844C18.0001 27.5889 18.8955 28.4844 20.0001 28.4844C21.1046 28.4844 22.0001 27.5889 22.0001 26.4844H18.0001ZM15.0001 19.4531V17.4531V19.4531ZM5.00006 19.4531L5.00006 17.4531L5.00006 19.4531ZM6.10352e-05 24.1406H-1.99994H6.10352e-05ZM-1.99994 26.4844C-1.99994 27.5889 -1.10451 28.4844 6.10352e-05 28.4844C1.10463 28.4844 2.00006 27.5889 2.00006 26.4844H-1.99994ZM11.2001 0L11.7926 -1.91021C11.4838 -2.00599 11.1564 -2.02549 10.8385 -1.96704L11.2001 0ZM18.0001 2.10938L18.3711 4.07465C19.2739 3.9042 19.9444 3.14067 19.9968 2.22348C20.0492 1.30629 19.47 0.471353 18.5926 0.19917L18.0001 2.10938ZM9.31117 3.75L8.87103 5.70097C9.13762 5.76111 9.41371 5.76598 9.68225 5.71527L9.31117 3.75ZM1.00006 1.875L0.638472 -0.0920419C-0.295893 0.0797166 -0.980494 0.885079 -0.999537 1.83491C-1.01858 2.78474 -0.366811 3.6169 0.55992 3.82597L1.00006 1.875ZM22.0001 26.4844V24.1406H18.0001V26.4844H22.0001ZM22.0001 24.1406C22.0001 22.3238 21.229 20.6097 19.9035 19.367L17.1677 22.2851C17.7175 22.8006 18.0001 23.471 18.0001 24.1406H22.0001ZM19.9035 19.367C18.5823 18.1284 16.8164 17.4531 15.0001 17.4531L15.0001 21.4531C15.8359 21.4531 16.6135 21.7656 17.1677 22.2851L19.9035 19.367ZM15.0001 17.4531H5.00006V21.4531H15.0001V17.4531ZM5.00006 17.4531C3.1837 17.4531 1.41783 18.1284 0.0966446 19.367L2.83241 22.2851C3.38658 21.7656 4.16426 21.4531 5.00006 21.4531L5.00006 17.4531ZM0.0966446 19.367C-1.22891 20.6097 -1.99994 22.3238 -1.99994 24.1406L2.00006 24.1406C2.00006 23.471 2.2826 22.8006 2.83241 22.2851L0.0966446 19.367ZM-1.99994 24.1406V26.4844H2.00006V24.1406H-1.99994ZM13.0001 10.0781C13.0001 11.4428 11.7805 12.7656 10.0001 12.7656V16.7656C13.7425 16.7656 17.0001 13.8912 17.0001 10.0781H13.0001ZM10.0001 12.7656C8.21966 12.7656 7.00006 11.4428 7.00006 10.0781H3.00006C3.00006 13.8912 6.25762 16.7656 10.0001 16.7656V12.7656ZM7.00006 10.0781C7.00006 8.71349 8.21966 7.39062 10.0001 7.39062V3.39062C6.25762 3.39062 3.00006 6.26509 3.00006 10.0781H7.00006ZM10.0001 7.39062C11.7805 7.39062 13.0001 8.71349 13.0001 10.0781H17.0001C17.0001 6.26509 13.7425 3.39062 10.0001 3.39062V7.39062ZM10.6075 1.91021L17.4075 4.01958L18.5926 0.19917L11.7926 -1.91021L10.6075 1.91021ZM17.629 0.144102L8.94009 1.78473L9.68225 5.71527L18.3711 4.07465L17.629 0.144102ZM9.75131 1.79903L1.4402 -0.0759678L0.55992 3.82597L8.87103 5.70097L9.75131 1.79903ZM1.36165 3.84204L11.5616 1.96704L10.8385 -1.96704L0.638472 -0.0920419L1.36165 3.84204ZM19.0001 5.15625C19.0001 3.67317 17.7572 2.6875 16.5001 2.6875V6.6875C15.7952 6.6875 15.0001 6.12156 15.0001 5.15625H19.0001ZM16.5001 2.6875C15.2429 2.6875 14.0001 3.67317 14.0001 5.15625H18.0001C18.0001 6.12156 17.2049 6.6875 16.5001 6.6875V2.6875ZM14.0001 5.15625C14.0001 6.63933 15.2429 7.625 16.5001 7.625V3.625C17.2049 3.625 18.0001 4.19094 18.0001 5.15625H14.0001ZM16.5001 7.625C17.7572 7.625 19.0001 6.63933 19.0001 5.15625H15.0001C15.0001 4.19094 15.7952 3.625 16.5001 3.625V7.625Z" fill="white" mask="url(#path-1-inside-1_125_55)"/>
</svg>
