<svg width="15" height="15" viewBox="0 0 15 15" fill="none" xmlns="http://www.w3.org/2000/svg">
<path d="M13.3206 8.03939C13.2157 9.1742 12.7899 10.2557 12.0928 11.1573C11.3957 12.0588 10.4563 12.7433 9.38442 13.1304C8.31256 13.5176 7.1526 13.5915 6.04028 13.3435C4.92796 13.0954 3.90928 12.5358 3.10343 11.7299C2.29758 10.9241 1.73791 9.90538 1.48988 8.79306C1.24186 7.68074 1.31576 6.52078 1.70292 5.44892C2.09008 4.37707 2.7745 3.43764 3.67609 2.74056C4.57768 2.04349 5.65914 1.6176 6.79395 1.51273C6.12956 2.41157 5.80985 3.51903 5.89297 4.63367C5.97609 5.74831 6.45652 6.7961 7.24688 7.58646C8.03724 8.37682 9.08503 8.85725 10.1997 8.94037C11.3143 9.02349 12.4218 8.70378 13.3206 8.03939Z" stroke="white" stroke-width="2" stroke-linecap="round" stroke-linejoin="round"/>
</svg>
