<svg width="42" height="42" viewBox="0 0 42 42" fill="none" xmlns="http://www.w3.org/2000/svg">
<path d="M25.5809 10.1691C25.1992 10.5585 24.9853 11.0821 24.9853 11.6274C24.9853 12.1727 25.1992 12.6963 25.5809 13.0857L28.9142 16.4191C29.3036 16.8008 29.8272 17.0146 30.3725 17.0146C30.9179 17.0146 31.4414 16.8008 31.8309 16.4191L39.685 8.56491C40.7326 10.8799 41.0498 13.4591 40.5943 15.959C40.1389 18.4588 38.9324 20.7604 37.1356 22.5572C35.3389 24.3539 33.0372 25.5604 30.5374 26.0159C28.0376 26.4713 25.4584 26.1542 23.1434 25.1066L8.74754 39.5024C7.91874 40.3312 6.79464 40.7968 5.62254 40.7968C4.45044 40.7968 3.32634 40.3312 2.49754 39.5024C1.66874 38.6736 1.20313 37.5495 1.20312 36.3774C1.20312 35.2053 1.66874 34.0812 2.49754 33.2524L16.8934 18.8566C15.8458 16.5416 15.5286 13.9623 15.9841 11.4625C16.4396 8.96271 17.6461 6.66107 19.4428 4.86433C21.2395 3.06759 23.5412 1.86109 26.041 1.40562C28.5408 0.95015 31.1201 1.26734 33.435 2.31491L25.5809 10.1691Z" stroke="white" stroke-width="2" stroke-linecap="round" stroke-linejoin="round"/>
</svg>
