<svg width="66" height="515" viewBox="0 0 66 515" fill="none" xmlns="http://www.w3.org/2000/svg">
<path d="M63.1979 7.56747L49.819 1.12985C49.0629 0.765738 48.2123 0.645731 47.3849 0.786448C46.5576 0.927165 45.7945 1.32164 45.2013 1.91526L19.5809 25.2879L8.42269 16.8163C7.91928 16.4345 7.29811 16.2409 6.66691 16.2691C6.0357 16.2973 5.43427 16.5455 4.96691 16.9707L1.38654 20.226C1.10754 20.4797 0.884564 20.7888 0.731903 21.1335C0.579242 21.4783 0.500256 21.8512 0.500001 22.2282C0.499746 22.6053 0.578228 22.9783 0.730423 23.3232C0.882618 23.6682 1.10517 23.9776 1.38384 24.2316L11.0606 33.0607L1.38384 41.8897C1.10517 42.1437 0.882618 42.4531 0.730423 42.7981C0.578228 43.1431 0.499746 43.516 0.500001 43.8931C0.500256 44.2701 0.579242 44.643 0.731903 44.9878C0.884564 45.3325 1.10754 45.6416 1.38654 45.8953L4.96962 49.1479C5.43698 49.5731 6.03841 49.8214 6.66962 49.8496C7.30082 49.8777 7.92199 49.6841 8.4254 49.3023L19.5836 40.8308L45.204 64.2034C45.7966 64.7971 46.5592 65.1917 47.3862 65.3324C48.2131 65.4732 49.0634 65.3531 49.819 64.9888L63.2034 58.5511C63.892 58.2188 64.4728 57.6989 64.8791 57.0511C65.2853 56.4034 65.5006 55.6541 65.5 54.8895V11.2291C65.5001 10.4639 65.284 9.71425 64.8768 9.06645C64.4695 8.41865 63.8876 7.89905 63.1979 7.56747ZM49.2611 47.8155L29.8209 33.0607L49.2611 18.3059V47.8155Z" fill="white" fill-opacity="0.8"/>
<path d="M0.5 162.39H65.5V97.3897H0.5V162.39ZM52.8819 127.301C54.534 127.712 55.7906 128.446 56.9471 129.643C57.5456 130.282 58.434 131.447 58.5044 131.729C58.526 131.81 55.6985 133.706 53.9869 134.77C53.9246 134.811 53.6754 134.543 53.3992 134.131C52.5596 132.912 51.6848 132.387 50.3442 132.295C48.3725 132.159 47.105 133.191 47.1158 134.914C47.0979 135.337 47.1932 135.758 47.3921 136.132C47.8254 137.029 48.6325 137.568 51.1567 138.659C55.8123 140.663 57.8029 141.982 59.0406 143.859C60.4219 145.953 60.7333 149.298 59.7935 151.784C58.7644 154.487 56.205 156.323 52.6029 156.93C51.4898 157.127 48.8492 157.098 47.6521 156.881C45.0412 156.415 42.5658 155.126 41.0383 153.433C40.4398 152.775 39.2725 151.05 39.3456 150.928C39.5334 150.785 39.7326 150.657 39.9415 150.546C40.234 150.381 41.3254 149.75 42.3573 149.151L44.226 148.068L44.6188 148.648C45.1658 149.482 46.3602 150.627 47.0833 151.009C49.1579 152.103 52.0044 151.949 53.4073 150.69C53.6894 150.452 53.9127 150.152 54.0598 149.814C54.2068 149.476 54.2737 149.108 54.255 148.74C54.255 147.987 54.1602 147.656 53.7675 147.088C53.2637 146.367 52.2319 145.761 49.3015 144.488C45.9485 143.044 44.505 142.148 43.1833 140.723C42.3584 139.783 41.7492 138.674 41.3985 137.473C41.1521 136.555 41.0898 134.253 41.2848 133.327C41.9754 130.085 44.421 127.829 47.95 127.157C49.0956 126.94 51.7579 127.022 52.8819 127.301ZM37.6231 130.014L37.6448 132.677H29.1812V156.716H23.1958V132.677H14.7404V130.066C14.7404 128.62 14.7702 127.412 14.8108 127.384C14.8433 127.341 19.9919 127.32 26.2319 127.33L37.5933 127.363L37.6231 130.014Z" fill="white" fill-opacity="0.8"/>
<path d="M44.4129 194.39L44.2098 195.449C43.8956 197.456 44.0094 198.03 44.8706 198.774L45.7021 199.462L44.8408 203.303C44.3262 205.594 43.6952 207.514 43.2944 208.145C42.9504 208.69 42.5496 209.491 42.4629 209.922C42.3194 210.437 41.8319 210.954 41.0871 211.412C40.429 211.785 39.1371 212.787 38.2217 213.592C37.4904 214.25 36.9867 214.653 36.7131 214.827L35.8194 215.534C35.5895 215.874 35.4167 216.25 35.3075 216.647C35.2452 216.937 35.2804 217.129 35.3725 217.27C35.4619 217.405 35.6162 217.5 35.8275 217.559C36.0776 217.618 36.335 217.639 36.5913 217.622C37.171 217.582 37.7449 217.48 38.3029 217.318C38.4925 217.267 38.6415 217.218 38.7715 217.175C38.9719 216.928 39.435 216.463 40.2556 215.653C42.4331 213.505 43.2646 212.33 42.406 212.647C42.0892 212.76 42.2327 212.473 42.7771 211.899C43.9254 210.781 44.5835 209.091 45.9594 203.79C47.0481 199.606 47.0481 199.546 47.8498 199.546C48.2262 199.546 49.2906 199.611 49.2906 199.611V194.39H44.4129ZM54.8102 202.962C54.6369 202.962 54.3498 203.222 54.1792 203.509C53.865 204.023 54.236 204.337 58.9648 207.289C61.7733 209.069 64.0375 210.586 63.9806 210.702C63.9237 210.786 61.6298 212.278 58.8808 213.998C53.8921 217.091 53.865 217.121 54.3227 217.752C54.8969 218.497 54.3227 218.754 60.7983 214.713L65.5 211.704V209.44L60.254 206.201C57.4183 204.424 54.9537 202.991 54.8102 202.962ZM11.2467 203.278C11.1031 203.278 8.63854 204.741 5.80292 206.488L0.5 209.727V211.991L5.77312 215.287C8.69812 217.091 11.1627 218.583 11.2765 218.583C11.3902 218.583 11.6204 218.323 11.8506 218.009C12.1946 217.465 11.9048 217.234 7.06229 214.169C2.45 211.273 1.9625 210.873 2.42292 210.558C2.71 210.358 4.8875 209.009 7.23833 207.549C12.5981 204.253 12.311 204.481 11.8804 203.793C11.7098 203.509 11.42 203.251 11.2494 203.278H11.2467ZM34.7658 203.341C33.975 203.335 32.2742 204.541 27.1825 208.698C26.9631 209.221 26.9442 209.581 27.0444 209.814C27.1094 209.973 27.2285 210.084 27.3937 210.166C27.5562 210.247 27.7675 210.296 28.0004 210.315C28.4635 210.355 29.0106 210.282 29.4521 210.196L29.75 210.128C29.852 209.991 29.9859 209.881 30.14 209.808C30.4542 209.635 31.7731 208.432 33.0921 207.143C35.4131 204.792 35.9575 203.731 35.0123 203.387C34.9347 203.356 34.8493 203.34 34.7658 203.341ZM40.7133 204.974C40.0173 204.993 38.7633 205.8 36.6156 207.514C35.5377 208.389 34.8552 208.86 34.4896 208.958L33.0704 210.079C32.5369 211.054 32.4583 211.658 32.5992 211.991C32.6344 212.073 32.6856 212.148 32.7497 212.21C32.8139 212.272 32.8897 212.321 32.9729 212.354C33.1798 212.436 33.4005 212.477 33.6229 212.476C34.1545 212.47 34.6829 212.393 35.1937 212.246C35.46 212.174 35.723 212.091 35.9819 211.997L36.0604 211.964L36.204 211.888C36.4748 211.539 37.0977 210.881 37.8777 210.122C40.3423 207.744 41.6017 206.054 41.3444 205.423C41.2279 205.117 41.0275 204.963 40.7133 204.974ZM34.1483 207.899C33.9479 207.921 33.4983 208.267 32.6885 208.977C31.5185 210.011 30.2429 210.607 29.8015 210.342C29.6989 210.365 29.5959 210.387 29.4927 210.407C29.0431 210.496 28.4825 210.569 27.9815 210.529C27.7454 210.514 27.514 210.457 27.299 210.358C27.0961 210.265 26.9343 210.102 26.844 209.898C26.7437 209.654 26.7438 209.351 26.8575 208.963L25.0971 210.409L21.1131 213.706V219.049L34.1673 208.766C34.1648 208.653 34.1794 208.541 34.2106 208.432C34.3108 208.069 34.3054 207.885 34.1483 207.902V207.899ZM39.7654 209.629C39.5677 209.629 39.2373 209.908 38.7092 210.469C37.9915 211.236 36.8621 211.978 36.2635 212.129L36.1715 212.178C36.0732 212.219 35.9738 212.257 35.8735 212.292C35.711 212.346 35.4998 212.411 35.256 212.476C34.7685 212.609 34.1619 212.731 33.6202 212.717C33.3648 212.717 33.1119 212.667 32.8754 212.571C32.6525 212.479 32.4738 212.304 32.3771 212.083C32.22 211.707 32.2823 211.179 32.6263 210.428L21.1104 219.499V222.762H26.1696L36.9 214.334C37.179 214.025 37.5987 213.603 38.1648 213.074C39.6815 211.669 40.0254 211.184 40.0254 210.466C40.0254 209.908 39.9631 209.627 39.7654 209.627V209.629ZM42.3194 214.911L41.4012 215.826C40.8867 216.314 39.9685 216.915 39.3402 217.172L39.2156 217.226L39.2075 217.24L39.1804 217.267C39.156 217.286 39.1452 217.289 39.1262 217.297C38.8754 217.392 38.6206 217.476 38.3625 217.549C37.7887 217.716 37.1984 217.82 36.6021 217.86C36.3201 217.878 36.0371 217.854 35.7625 217.787C35.5242 217.735 35.3138 217.596 35.1721 217.397C35.0421 217.197 35.0042 216.928 35.0773 216.598C35.1355 216.363 35.2218 216.135 35.3346 215.921L26.676 222.762H38.1919L39.5677 221.186C41.4581 218.981 42.3194 217.405 42.3194 216.056V214.911Z" fill="white" fill-opacity="0.8"/>
<path d="M33 254.762C15.0438 254.762 0.5 269.314 0.5 287.262C0.5 301.624 9.81125 313.804 22.7219 318.097C24.3469 318.403 24.9427 317.398 24.9427 316.534C24.9427 315.762 24.9156 313.717 24.9021 311.009C15.8617 312.97 13.955 306.648 13.955 306.648C12.4762 302.897 10.3394 301.895 10.3394 301.895C7.39542 299.88 10.5669 299.921 10.5669 299.921C13.8304 300.148 15.5448 303.268 15.5448 303.268C18.4427 308.238 23.1525 306.803 25.0104 305.971C25.3029 303.87 26.1398 302.437 27.0688 301.624C19.851 300.812 12.265 298.017 12.265 285.564C12.265 282.016 13.5244 279.118 15.6098 276.843C15.2442 276.023 14.1473 272.718 15.8942 268.242C15.8942 268.242 18.616 267.369 24.8317 271.573C27.4317 270.85 30.1942 270.492 32.9567 270.476C35.7192 270.492 38.4817 270.85 41.0817 271.573C47.2567 267.369 49.9785 268.242 49.9785 268.242C51.7254 272.718 50.6285 276.023 50.3035 276.843C52.3754 279.118 53.6348 282.016 53.6348 285.564C53.6348 298.049 46.0379 300.798 38.8067 301.597C39.9442 302.572 41.0004 304.566 41.0004 307.61C41.0004 311.959 40.9598 315.453 40.9598 316.509C40.9598 317.363 41.5285 318.378 43.1942 318.053C56.1969 313.79 65.5 301.603 65.5 287.262C65.5 269.314 50.9481 254.762 33 254.762Z" fill="white" fill-opacity="0.8"/>
<path d="M33 373.275C32.2392 373.275 31.4859 373.424 30.7831 373.715C30.0802 374.007 29.4416 374.433 28.9036 374.971C28.3657 375.509 27.939 376.148 27.6479 376.851C27.3567 377.554 27.2069 378.307 27.2069 379.068C27.2069 379.828 27.3567 380.582 27.6479 381.285C27.939 381.987 28.3657 382.626 28.9036 383.164C29.4416 383.702 30.0802 384.129 30.7831 384.42C31.4859 384.711 32.2392 384.861 33 384.861C33.7608 384.861 34.5141 384.711 35.2169 384.42C35.9198 384.129 36.5584 383.702 37.0964 383.164C37.6343 382.626 38.061 381.987 38.3521 381.285C38.6433 380.582 38.7931 379.828 38.7931 379.068C38.7931 378.307 38.6433 377.554 38.3521 376.851C38.061 376.148 37.6343 375.509 37.0964 374.971C36.5584 374.433 35.9198 374.007 35.2169 373.715C34.5141 373.424 33.7608 373.275 33 373.275ZM16.7717 390.592L15.4933 390.267C5.96542 387.859 0.5 383.772 0.5 379.057C0.5 374.342 5.96542 370.255 15.4933 367.847L16.7717 367.525L17.1319 368.792C18.0971 372.117 19.3316 375.358 20.8233 378.483L21.0969 379.06L20.8233 379.636C19.3292 382.76 18.0945 386.001 17.1319 389.327L16.7717 390.592ZM14.9002 370.807C7.65812 372.841 3.21375 375.953 3.21375 379.057C3.21375 382.158 7.65812 385.27 14.9002 387.306C15.7859 384.49 16.8553 381.734 18.1015 379.057C16.8538 376.38 15.7844 373.625 14.9002 370.807ZM49.2283 390.592L48.8681 389.321C47.9039 385.997 46.6684 382.756 45.174 379.634L44.9004 379.057L45.174 378.48C46.6678 375.356 47.9033 372.115 48.8681 368.79L49.2283 367.522L50.5094 367.844C60.0346 370.252 65.5 374.339 65.5 379.057C65.5 383.775 60.0346 387.859 50.5094 390.267L49.2283 390.592ZM47.8985 379.057C49.1985 381.871 50.2738 384.636 51.0998 387.306C58.3446 385.27 62.7862 382.158 62.7862 379.057C62.7862 375.953 58.3419 372.844 51.0998 370.807C50.2153 373.624 49.1459 376.38 47.8985 379.057ZM14.8812 370.794L14.521 369.529C11.8425 360.088 12.655 353.322 16.75 350.961C20.7665 348.642 27.215 351.38 33.9723 358.316L34.8931 359.262L33.9723 360.207C31.5712 362.703 29.3775 365.39 27.4127 368.242L27.0471 368.765L26.4106 368.819C22.9545 369.092 19.5263 369.644 16.1596 370.471L14.8812 370.794ZM20.0162 352.837C19.2904 352.837 18.6485 352.995 18.1069 353.306C15.4148 354.858 14.9381 360.253 16.7933 367.533C19.6794 366.891 22.6043 366.438 25.5494 366.176C27.2486 363.76 29.1052 361.458 31.1069 359.286C26.8819 355.172 22.8817 352.837 20.0162 352.837ZM45.9865 407.984C45.9837 407.984 45.9837 407.984 45.9865 407.984C42.1271 407.984 37.1708 405.078 32.0277 399.797L31.1069 398.852L32.0277 397.907C34.4281 395.41 36.621 392.722 38.5846 389.868L38.9502 389.346L39.584 389.292C43.0418 389.021 46.4719 388.469 49.8404 387.642L51.1188 387.32L51.4817 388.587C54.1548 398.023 53.345 404.791 49.25 407.15C48.2553 407.713 47.129 408.001 45.9865 407.984ZM34.8931 398.828C39.1181 402.942 43.1183 405.276 45.9837 405.276C46.7069 405.276 47.3542 405.119 47.8931 404.808C50.5852 403.256 51.0646 397.858 49.2067 390.578C46.3198 391.221 43.394 391.674 40.4479 391.935C38.7507 394.353 36.895 396.655 34.8931 398.828ZM51.1188 370.794L49.8404 370.471C46.4724 369.642 43.0421 369.089 39.584 368.819L38.9502 368.765L38.5846 368.242C36.622 365.389 34.4291 362.702 32.0277 360.207L31.1069 359.262L32.0277 358.316C38.7823 351.383 45.2281 348.645 49.25 350.961C53.345 353.322 54.1575 360.088 51.4817 369.526L51.1188 370.794ZM40.4479 366.176C43.5408 366.458 46.4794 366.915 49.2067 367.533C51.0646 360.253 50.5852 354.858 47.8931 353.306C45.2173 351.76 40.1879 354.129 34.8931 359.286C36.8939 361.458 38.7495 363.76 40.4479 366.176ZM20.0162 407.984C18.8728 408.001 17.7455 407.713 16.75 407.15C12.655 404.791 11.8425 398.026 14.521 388.587L14.8785 387.32L16.1569 387.642C19.285 388.43 22.7354 388.986 26.4079 389.292L27.0444 389.346L27.4073 389.868C29.3723 392.721 31.5661 395.41 33.9669 397.907L34.8877 398.852L33.9669 399.797C28.8265 405.078 23.8702 407.984 20.0162 407.984ZM16.7933 390.578C14.9354 397.858 15.4148 403.256 18.1069 404.808C20.78 406.332 25.8067 403.982 31.1069 398.828C29.106 396.654 27.2495 394.351 25.5494 391.935C22.6042 391.674 19.6792 391.221 16.7933 390.578ZM33 392.279C30.771 392.279 28.4798 392.181 26.1858 391.992L25.5494 391.938L25.1838 391.415C23.8862 389.551 22.6664 387.633 21.5275 385.668C20.392 383.701 19.3384 381.688 18.3696 379.634L18.1015 379.057L18.3696 378.48C19.3383 376.426 20.3918 374.413 21.5275 372.446C22.6488 370.507 23.881 368.573 25.1838 366.699L25.5494 366.176L26.1858 366.122C30.7214 365.737 35.2813 365.737 39.8169 366.122L40.4506 366.176L40.8135 366.699C43.4113 370.428 45.6916 374.369 47.6304 378.48L47.904 379.057L47.6304 379.634C45.6962 383.747 43.4157 387.688 40.8135 391.415L40.4506 391.938L39.8169 391.992C37.5229 392.181 35.229 392.279 33 392.279ZM27.0498 389.343C31.0581 389.644 34.9419 389.644 38.9529 389.343C41.1922 386.069 43.1804 382.631 44.9004 379.057C43.1835 375.481 41.1942 372.042 38.9502 368.771C34.9891 368.47 31.0109 368.47 27.0498 368.771C24.8048 372.041 22.8155 375.48 21.0996 379.057C22.8214 382.63 24.8105 386.069 27.0498 389.343Z" fill="white" fill-opacity="0.8"/>
<path d="M0.5 439.985H65.5L59.5881 506.728L32.9288 514.271L6.42119 506.725L0.5 439.985ZM22.2626 470.164L21.5445 461.751L52.6795 461.76L53.3914 453.644L12.6086 453.635L14.769 478.428H43.0162L42.0071 489.032L33 491.521L23.8536 489.014L23.2717 482.483H15.1962L16.2176 495.393L33 499.881L49.6493 495.415L51.9521 470.167H22.2626V470.164Z" fill="white" fill-opacity="0.8"/>
</svg>
